<svg id="Glyph" height="512" viewBox="0 0 128 128" width="512" xmlns="http://www.w3.org/2000/svg"><path d="m113.48 83.1c-15.94-6.29-28-14.92-34.12-24.3-5.11-7.93-11-9.5-13.94-9.74v-6.06a2 2 0 0 1 1.46-2 9.45 9.45 0 1 0 -11.88-9.13 1 1 0 1 0 2 0 7.45 7.45 0 1 1 9.38 7.2 4 4 0 0 0 -2.96 3.93v6c-2.65 0-9.18 1.09-14.78 9.78-6.06 9.38-18.18 18-34.12 24.3-1.17.33-13.36 3.85-14.52 19.12a3.15 3.15 0 0 0 .83 2.35 3.18 3.18 0 0 0 2.33 1h121.67a3.18 3.18 0 0 0 2.33-1 3.15 3.15 0 0 0 .83-2.35c-1.15-15.27-13.34-18.79-14.51-19.1zm-99.76 15.56a255.31 255.31 0 0 0 50.28-35.38c14.28 13.63 29.43 22.72 48.52 34.11l2.12 1.27z"/></svg>